<svg height="22" width="126" xmlns="http://www.w3.org/2000/svg"><path d="M22.6 19.8c0 .7.6 1 .9 1.1.5.1.6.1.6.1v.2h-7V21c.4-.1 1.3-.3 1.4-1.1v-7c0-1.3-.4-2.2-1.4-2.6-1-.5-2-.3-3.2.5h-.1v8.9c0 1.1.8 1.2 1.3 1.3v.2H8.2V21c.5-.1 1.5-.3 1.5-1.3v-15C9.6 3.3 9.4 3 8 2.7l-.1-.5C9.1 2 14 .7 14 .7v9l1.2-.8c1.6-1 3.1-1.3 4.6-1 1.6.4 2.6 1.6 2.7 3.3zm-15.1-.6s-.7.6-1.5.6c-1.1 0-1.6-.6-1.6-1.5V9.4h3.1V8.1H4.4V3.5h-.5L.2 6.3v12.5c0 .1 0 .5.1.8.3.8 1.1 2 3.1 1.9 3.2 0 4.5-1.9 4.5-1.9zm21.1-5.1c.3-.1 2.3-.6 2.9-.8 1-.3 1.3-.6 1.3-1.6.1-1.3-.3-2.2-1.1-2.5-.3-.1-.8-.1-1.2-.1-.6.1-1.1.6-1.5 1.3-.4 1-.5 2.1-.4 3.7zm8.2 4.5c-1.8 2.5-4.5 3.5-7.7 2.8-2.5-.6-4.1-2-4.8-4.4s-.3-4.8 1-6.7c.9-1.2 2.5-2.7 5.6-2.7.7 0 3.1 0 4.7 1.8.8 1 1.4 2.1 1.6 3.6-1.5.4-2.9.8-4.2 1.2s-4.2 1.2-4.2 1.2.2 2.7 2.7 3.7c1.7.7 3.5.2 4.8-.9zm87.1.8v-7.5c0-1.4-.7-2.7-1.7-3.5-.9-.7-2.4-.9-3.5-.6-1.8.5-3.5 1.8-3.5 1.8l-.7-1.6-4.8 1.4.1.5c.8.2 1.3.9 1.4 1.7v7.8c0 .9-.8 1.4-1.4 1.5v.2h6.8V21c-.6-.1-1.3-.5-1.3-1.5V11s1.6-1.3 3-.8c1.2.4 1.5 1.4 1.6 2.5v6.9c0 .9-.8 1.3-1.4 1.5v.2h6.8V21c-.7-.2-1.4-.5-1.4-1.6zm-38.5.9l-9-12.2h-5v.2c.2 0 .4.2.6.3l.4.4 8.9 12.1h5V21c-.4 0-.9-.7-.9-.7zm-4-8.5c-.3.5-.6.9-.6.9l.4.6.4-.4c1.4-1.4 4.8-4.7 4.8-4.7h-5.1l.1.1c.7.9.7 2.4 0 3.5zm-5.1 5.7c.3-.4.5-.8.6-.9l-.4-.6-.4.4c-1.4 1.4-4.8 4.7-4.8 4.7h5.1l-.1-.1c-.7-.9-.6-2.4 0-3.5zm22.9-2.4c.1.6.2 1.2.3 1.7.3 1.1.6 2.2 1.4 3.1.5.6 1.2.9 1.9.8h.2c.9-.1 1.6-.6 2-1.7.2-.4.3-.8.4-1.3.2-1 .2-2.1.1-3.2 0 0-.2-1.5-.3-1.9-.3-1.1-.6-2.2-1.4-3-.5-.6-1.2-.8-1.9-.8h-.1c-.9.1-1.6.6-2 1.6-.2.4-.3.8-.4 1.3-.2 1-.2 2.1-.1 3.2zm.3-6.9c1.7-.6 3.5-.7 5.3-.3 2.8.7 5.1 3.8 4.6 7.7-.5 4.2-3.4 6.2-7.6 6-1.1 0-3.2-.3-4.6-1.7-1.7-1.7-2.7-3.9-1.9-7.1.8-3.7 4.2-4.6 4.2-4.6zm-37.6 6.9c.1.6.2 1.2.3 1.7.3 1.1.6 2.2 1.4 3.1.5.6 1.2.9 1.9.8h.2c.9-.1 1.6-.6 2-1.7.2-.4.3-.8.4-1.3.2-1 .2-2.1.1-3.2 0 0-.2-1.5-.3-1.9-.3-1.1-.6-2.2-1.4-3-.5-.6-1.2-.8-1.9-.8h-.1c-.9.1-1.6.6-2 1.6-.2.4-.3.8-.4 1.3-.2 1-.2 2.1-.1 3.2zm.3-6.9c1.7-.6 3.5-.7 5.3-.3 2.8.7 5.1 3.8 4.6 7.7-.5 4.2-3.4 6.2-7.6 6-1.1 0-3.2-.3-4.6-1.7-1.7-1.7-2.7-3.9-1.9-7.1.7-3.7 4.2-4.6 4.2-4.6zm32.6 11s-.7.6-1.5.6c-1.1 0-1.6-.6-1.6-1.5V9.4h3.1V8.1h-3.1V3.5h-.5l-3.6 2.8v12.5c0 .1 0 .5.1.8.3.8 1.1 2 3.1 1.9 3.2 0 4.5-1.9 4.5-1.9zm-38.7-8C56 9.5 55 8.3 53.4 7.9c-1.5-.4-3-.1-4.6 1l-1.2.8v-9s-4.9 1.2-5.9 1.5l.1.5c1.4.4 1.6.6 1.7 2v15c0 1-1 1.2-1.5 1.3v.2h6.9V21c-.4-.1-1.3-.2-1.3-1.3v-8.9h.1c1.1-.9 2.2-1 3.2-.5s1.4 1.3 1.4 2.6v7c-.1.9-1 1-1.4 1.1v.2h7V21s-.1 0-.6-.1c-.4-.1-.9-.3-.9-1.1z" fill="#353535"/></svg>