<?xml version="1.0" encoding="UTF-8"?> <svg xmlns="http://www.w3.org/2000/svg" xmlns:xlink="http://www.w3.org/1999/xlink" width="12px" height="15px" viewBox="0 0 12 15" version="1.1"><!-- Generator: Sketch 64 (93537) - https://sketch.com --><title>Group 3</title><desc>Created with Sketch.</desc><g id="Page-1" stroke="none" stroke-width="1" fill="none" fill-rule="evenodd"><g id="Hox-/-Icons" transform="translate(-166.000000, -18.000000)"><g id="Group-3" transform="translate(166.000000, 18.000000)"><path d="M7.99988825,2 C9.10445775,2 9.99988825,2.8954305 9.99988825,4 L9.99988825,10 C9.99988825,10.8494013 9.73513477,11.6369662 9.28364824,12.2846741 L11.9998883,15 L0,15 L2.71543524,12.2836796 C2.26437081,11.6361601 1.99988825,10.8489666 1.99988825,10 L1.99988825,4 C1.99988825,2.8954305 2.89531875,2 3.99988825,2 L7.99988825,2 Z M4.49988825,10 C4.22374588,10 3.99988825,10.2238576 3.99988825,10.5 C3.99988825,10.7761424 4.22374588,11 4.49988825,11 C4.77603063,11 4.99988825,10.7761424 4.99988825,10.5 C4.99988825,10.2238576 4.77603063,10 4.49988825,10 Z M7.49988825,10 C7.22374588,10 6.99988825,10.2238576 6.99988825,10.5 C6.99988825,10.7761424 7.22374588,11 7.49988825,11 C7.77603063,11 7.99988825,10.7761424 7.99988825,10.5 C7.99988825,10.2238576 7.77603063,10 7.49988825,10 Z M8.99988825,4 L2.99988825,4 L2.99988825,8 L8.99988825,8 L8.99988825,4 Z" id="Combined-Shape-Copy-2" fill="#3E3A37"></path><line x1="9" y1="0.5" x2="3" y2="0.5" id="Line-Copy" stroke="#3E3A37" stroke-linecap="round"></line><line x1="6" y1="0.5" x2="6" y2="2.5" id="Line" stroke="#3E3A37" stroke-linecap="square"></line></g></g></g></svg> 