<?xml version="1.0" encoding="UTF-8"?> <svg xmlns="http://www.w3.org/2000/svg" xmlns:xlink="http://www.w3.org/1999/xlink" width="13px" height="14px" viewBox="0 0 13 14" version="1.1"><!-- Generator: Sketch 64 (93537) - https://sketch.com --><title>Aeroplane</title><desc>Created with Sketch.</desc><defs><polyline id="path-1" points="0 0.26315625 12.8851406 0.26315625 12.8851406 13.125 0 13.125"></polyline></defs><g id="City-Page" stroke="none" stroke-width="1" fill="none" fill-rule="evenodd"><g id="Hoxton-/-Desktop-/-City-Page-/-V26" transform="translate(-107.000000, -3324.000000)"><g id="Group-15" transform="translate(0.000000, 1330.000000)"><g id="Group-10-Copy" transform="translate(80.000000, 1188.000000)"><g id="Group-14" transform="translate(24.000000, 752.000000)"><g id="Group-9" transform="translate(0.000000, 5.000000)"><g id="Aeroplane" transform="translate(3.000000, 49.000000)"><mask id="mask-2" fill="white"><use xlink:href="#path-1"></use></mask><g id="path-1"></g><path d="M10.2206344,4.80450469 C10.5481031,7.05347344 11.4320719,9.24239531 11.5964625,11.5179422 C11.1334781,11.8283484 10.7482594,12.0865828 10.2495094,12.4206141 C9.34618125,10.8426609 8.41594687,9.21745781 7.54772812,7.70020781 C6.76875937,8.47884844 5.94680625,9.30112969 5.08515,10.1627859 C5.1625875,10.7196141 5.26955625,11.4897234 5.35880625,12.1305516 C4.99130625,12.5272547 4.7347125,12.8038641 4.43775937,13.1250984 C3.12886875,11.4752859 1.87313438,9.81136406 -0.00013125,8.73150469 C0.459571875,8.31741094 0.852009375,7.96369219 1.34354062,7.52105156 C1.74286875,7.66936406 2.30166563,7.87739531 2.69607187,8.02406719 C3.5469,7.17291094 4.38755625,6.33258281 5.28924375,5.43056719 C5.02838437,5.26945781 4.71338437,5.05584844 4.38132187,4.87341094 C3.134775,4.18894219 1.88297812,3.51464531 0.641025,2.84100469 C0.82149375,1.92487969 1.50957187,1.70077031 2.07722812,1.38314531 C4.08469687,1.84711406 6.09511875,2.31206719 8.18429062,2.79506719 C8.73029062,2.24283281 9.3809625,1.58494219 9.97913437,0.979551562 C10.8427594,0.806957812 11.4432281,-0.0579796875 12.458775,0.391223437 C12.5303062,0.462098437 12.6855094,0.615660937 12.8850094,0.813520312 C12.7445719,1.32900469 12.5965875,1.87237969 12.3882281,2.63691094 C11.776275,3.24853594 11.0081344,4.01700469 10.2206344,4.80450469 Z" id="Fill-1" fill="#3E3A37" fill-rule="nonzero" mask="url(#mask-2)"></path></g></g></g></g></g></g></g></svg> 