<?xml version="1.0" encoding="UTF-8"?> <svg xmlns="http://www.w3.org/2000/svg" xmlns:xlink="http://www.w3.org/1999/xlink" width="12px" height="13px" viewBox="0 0 12 13" version="1.1"><!-- Generator: Sketch 64 (93537) - https://sketch.com --><title>Train</title><desc>Created with Sketch.</desc><defs><polygon id="path-1" points="0 0.03432 11.7441818 0.03432 11.7441818 13 0 13"></polygon></defs><g id="City-Page" stroke="none" stroke-width="1" fill="none" fill-rule="evenodd"><g id="Hoxton-/-Desktop-/-City-Page-/-V26" transform="translate(-107.000000, -3301.000000)"><g id="Group-15" transform="translate(0.000000, 1330.000000)"><g id="Group-10-Copy" transform="translate(80.000000, 1188.000000)"><g id="Group-14" transform="translate(24.000000, 752.000000)"><g id="Group-9" transform="translate(0.000000, 5.000000)"><g id="Train" transform="translate(3.000000, 26.000000)"><mask id="mask-2" fill="white"><use xlink:href="#path-1"></use></mask><g id="path-1"></g><path d="M4.93055455,9.58152 C5.23791818,9.70398 5.58619091,9.84256 6.01164545,10.01208 C6.49164545,9.685 6.97000909,9.3587 7.33546364,9.10962 C7.46091818,8.23264 7.32128182,7.60058 6.61328182,7.01792 C6.04300909,7.098 5.3691,7.19238 4.80619091,7.27142 C4.23482727,8.10238 4.25828182,8.78098 4.93055455,9.58152 L4.93055455,9.58152 Z M10.3510091,1.91906 L1.3761,1.91906 C1.3761,2.60728 1.36382727,3.25104 1.37937273,3.89428 C1.39464545,4.5227 1.30819091,5.1597 1.42246364,5.72884 L10.3510091,5.72884 L10.3510091,1.91906 Z M10.1549182,13 L1.83973636,13 C2.30500909,12.55644 2.82891818,12.05698 3.48837273,11.4283 C3.05855455,11.20886 2.82237273,10.985 2.59900909,10.99592 C2.12091818,11.01932 1.78437273,10.76374 1.39764545,10.60306 C0.411463636,10.1933 -0.0186272727,9.48844 0.000736363636,8.44844 C0.0397363636,6.3297 0.0124636364,4.20992 0.0124636364,2.0904 C0.3681,1.36058 0.838281818,0.71292 1.66791818,0.4407 C2.22755455,0.25688 2.82264545,0.08762 3.40682727,0.07124 C5.12937273,0.02288 6.85546364,0.02288 8.57828182,0.06552 C9.60264545,0.091 10.4944636,0.47398 11.2060091,1.22226 C11.5823727,1.61824 11.7465545,2.0462 11.7441271,2.57218 C11.7337364,4.8178 11.7397364,7.06342 11.7397364,9.14004 C11.3464636,10.05004 10.7813727,10.60176 9.76137273,10.98994 L8.85919091,10.98994 C8.71546364,11.12696 8.61919091,11.21874 8.52319091,11.31052 C8.76591818,12.09442 9.91082727,12.09832 10.1549182,13 L10.1549182,13 Z" id="Fill-1" fill="#3E3A37" fill-rule="nonzero" mask="url(#mask-2)"></path></g></g></g></g></g></g></g></svg> 