<?xml version="1.0" encoding="UTF-8"?>
<svg width="800px" height="279px" viewBox="0 0 800 279" version="1.1" xmlns="http://www.w3.org/2000/svg" xmlns:xlink="http://www.w3.org/1999/xlink">
    <!-- Generator: Sketch 64 (93537) - https://sketch.com -->
    <title>Group 8</title>
    <desc>Created with Sketch.</desc>
    <g id="Whats-On" stroke="none" stroke-width="1" fill="none" fill-rule="evenodd">
        <g id="Group-8" fill="#FEF5ED">
            <path d="M399.570556,0.000555555555 L799.142778,139.219074 L399.570556,278.439444 L0.000185185194,139.219074 L399.570556,0.000555555555 Z M399.570556,16.6783333 L384.463148,21.9357407 C376.348333,24.7690741 374.315,28.3190741 374.315,39.0153704 L374.315,39.0153704 L374.315,71.3616667 C374.315,102.495 378.333519,119.911667 388.642778,133.47463 L388.642778,133.47463 L400.59463,149.196852 C409.168704,160.478333 412.507593,175.11537 412.507593,201.413519 L412.507593,201.413519 L412.507593,237.246852 C412.507593,242.856111 411.296481,244.896852 406.392778,246.663519 L406.392778,246.663519 L399.570556,249.052407 L392.713148,246.669074 C387.703889,244.935741 386.559444,242.856111 386.559444,237.246852 L386.559444,237.246852 L386.559444,189.052407 L374.318704,189.052407 L374.318704,239.428333 C374.318704,250.120926 376.513148,253.728333 384.479815,256.530185 L384.479815,256.530185 L399.570556,261.761667 L414.602037,256.493148 C422.624259,253.728333 424.750185,250.120926 424.750185,239.428333 L424.750185,239.428333 L424.750185,202.550556 C424.750185,171.322778 420.731667,153.909815 410.420556,140.437593 L410.420556,140.437593 L398.470556,124.717222 C389.674259,113.054259 386.557593,99.3894444 386.557593,72.495 L386.557593,72.495 L386.557593,41.1931481 C386.557593,35.5857407 387.672407,33.5246296 392.648333,31.7894444 L392.648333,31.7894444 L399.570556,29.3894444 L406.352037,31.7616667 C411.296481,33.4783333 412.507593,35.5857407 412.507593,41.1931481 L412.507593,41.1931481 L412.505741,89.3931481 L424.746481,89.3931481 L424.746481,39.0153704 C424.746481,28.3190741 422.672407,24.7246296 414.58537,21.9116667 L414.58537,21.9116667 L399.570556,16.6783333 Z M440.807593,31.045 L440.807593,247.393148 L453.470556,242.982037 L453.470556,102.378333 L466.615,172.346852 L475.926111,171.417222 L489.770556,109.619074 L489.770556,230.335741 L502.013148,226.069074 L502.013148,52.3709259 L491.368704,48.6598148 L472.124259,138.193148 L452.396481,35.0709259 L440.807593,31.045 Z M358.255741,31.0727778 L345.805741,35.4098148 L345.805741,243.030185 L358.255741,247.367222 L358.255741,31.0727778 Z M330.881667,40.6098148 L318.429815,44.9487037 L318.429815,182.659815 L287.357593,55.7764815 L275.366852,59.9542593 L275.366852,218.485741 L287.396481,222.678333 L287.396481,108.730185 L318.34463,233.461667 L330.881667,237.828333 L330.881667,40.6098148 Z M531.18537,62.5061111 C523.579815,59.8857407 514.887222,62.7968519 514.887222,75.8061111 L514.887222,75.8061111 L514.887222,203.01537 C514.887222,215.87463 523.179815,218.702407 532.229815,215.537593 L532.229815,215.537593 L545.227963,211.013519 C552.18537,208.585741 555.222407,204.122778 555.222407,195.750556 L555.222407,195.750556 L555.222407,86.3709259 C555.222407,75.8616667 551.268704,69.5709259 542.776111,66.5727778 L542.776111,66.5727778 Z M260.439074,65.1542593 L248.409444,69.3468519 L248.409444,172.645 L217.14463,80.2375926 L204.924259,84.4968519 L204.924259,193.943148 L216.953889,198.133889 L216.953889,118.31537 L248.218704,209.028333 L260.439074,213.283889 L260.439074,65.1542593 Z M567.989074,75.3838889 L567.989074,203.082037 L580.229815,198.817222 L580.229815,150.570926 L585.648333,150.570926 L594.748333,193.757963 L606.498333,189.663519 L597.552037,148.06537 C604.492778,144.202407 605.790926,136.711667 605.790926,131.66537 L605.790926,131.66537 L605.790926,104.332037 C605.790926,93.8542593 601.215,86.9357407 591.98537,83.695 L591.98537,83.695 L567.989074,75.3838889 Z M527.520741,82.4975926 C527.520741,75.2198148 529.692963,75.1327778 533.354074,76.2938889 L533.354074,76.2938889 L537.828148,77.7161111 C541.739259,78.9383333 543.376296,80.6327778 543.376296,87.9827778 L543.376296,87.9827778 L543.376296,191.556852 C543.376296,196.830926 542.33,199.373519 538.220741,200.597593 L538.220741,200.597593 L534.565185,201.819815 C530.165185,203.182778 527.520741,202.98463 527.520741,195.312407 L527.520741,195.312407 Z M192.092778,88.9672222 L152.107593,102.898704 L152.107593,175.541296 L192.092778,189.472778 L192.092778,176.430185 L164.139074,168.096852 L164.139074,145.322778 L189.627963,145.526481 L189.627963,132.954259 L164.139074,134.385741 L164.139074,110.037593 L192.092778,101.800556 L192.092778,88.9672222 Z M618.103889,92.8172222 L618.103889,185.619074 L654.211296,173.039444 L654.211296,161.796852 L629.926111,169.085741 L629.926111,144.635741 L651.877963,144.045 L651.877963,133.61537 L629.926111,133.026481 L629.926111,109.178333 L654.211296,116.580185 L654.211296,105.400556 L618.103889,92.8172222 Z M580.229074,91.947963 L586.477222,93.9053704 C592.336481,95.7387037 593.971667,99.0294444 593.971667,107.440556 L593.971667,107.440556 L593.971667,127.820185 C593.971667,136.831296 591.060556,138.677593 586.690185,138.677593 L586.690185,138.677593 L580.229074,138.677593 L580.229074,91.947963 Z" id="Combined-Shape"></path>
        </g>
    </g>
</svg>